<?xml version="1.0" standalone="no"?>
<!DOCTYPE svg PUBLIC "-//W3C//DTD SVG 20010904//EN"
 "http://www.w3.org/TR/2001/REC-SVG-20010904/DTD/svg10.dtd">
<svg version="1.0" xmlns="http://www.w3.org/2000/svg"
 width="500.000000pt" height="500.000000pt" viewBox="0 0 500.000000 500.000000"
 preserveAspectRatio="xMidYMid meet">
<metadata>
Created by potrace 1.14, written by Peter Selinger 2001-2017
</metadata>
<g transform="translate(0.000000,500.000000) scale(0.100000,-0.100000)"
fill="#000000" stroke="none">
<path d="M3665 4900 c-71 -16 -108 -48 -365 -320 -29 -30 -132 -138 -230 -240
-98 -102 -211 -219 -250 -260 -40 -41 -161 -167 -270 -280 -109 -113 -219
-227 -245 -255 -26 -27 -146 -151 -265 -275 -119 -124 -239 -247 -265 -275
-26 -27 -141 -147 -255 -265 -238 -246 -315 -326 -478 -497 l-116 -121 -73
-189 c-40 -103 -78 -196 -83 -205 -6 -10 -10 -23 -10 -29 0 -6 -11 -37 -24
-68 -14 -31 -44 -105 -67 -166 -23 -60 -47 -123 -55 -140 -7 -16 -28 -70 -47
-120 -46 -122 -206 -535 -217 -560 -5 -11 -19 -45 -30 -75 -11 -30 -24 -64
-29 -75 -12 -26 -55 -138 -57 -145 0 -3 -6 -18 -13 -35 -40 -95 -61 -160 -56
-175 5 -17 41 -37 60 -35 12 2 2 -2 260 110 110 48 297 128 415 179 118 52
235 103 260 114 25 11 187 81 360 156 687 295 602 252 710 358 52 52 187 190
300 308 113 117 232 241 265 275 33 34 152 158 265 275 113 117 234 244 270
280 36 37 157 163 270 280 113 117 260 270 327 339 67 69 154 160 195 203 40
42 161 168 270 280 108 111 242 250 297 308 123 127 145 168 145 265 -1 78
-20 128 -71 180 -32 32 -379 365 -451 434 -24 22 -129 122 -233 223 -105 101
-211 195 -237 210 -49 27 -126 40 -177 28z m-270 -616 c61 -58 188 -181 284
-272 96 -92 197 -189 226 -217 60 -58 340 -324 403 -383 23 -22 42 -43 42 -46
0 -16 -62 -66 -73 -59 -7 4 -100 93 -207 199 -107 105 -215 211 -240 234 -25
24 -133 127 -240 230 -298 286 -361 345 -371 348 -9 4 50 72 61 72 3 0 55 -48
115 -106z m-198 -90 c32 -30 88 -84 124 -119 37 -34 69 -67 73 -73 3 -5 -31
-47 -75 -93 -45 -46 -165 -171 -267 -278 -103 -107 -243 -253 -312 -324 -69
-72 -150 -156 -180 -187 -30 -32 -145 -151 -255 -265 -110 -114 -225 -234
-255 -265 -30 -32 -146 -151 -256 -266 -111 -115 -225 -234 -254 -264 -28 -30
-90 -95 -138 -143 l-86 -88 -55 55 c-31 29 -89 85 -128 123 -40 38 -73 74 -73
79 0 11 11 22 675 709 39 40 153 159 255 265 102 106 214 223 250 260 36 37
164 170 285 295 121 125 253 262 293 304 41 42 129 133 195 203 67 70 123 128
124 128 1 0 28 -25 60 -56z m878 -849 l127 -126 -75 -77 c-128 -132 -434 -451
-582 -607 -52 -55 -340 -356 -435 -455 -66 -69 -365 -381 -445 -465 -83 -87
-368 -385 -455 -477 -42 -43 -80 -78 -85 -78 -6 0 -68 56 -140 124 l-130 124
72 74 c39 40 100 103 135 139 35 36 149 155 253 264 105 108 217 225 250 260
55 57 347 361 490 509 33 35 155 161 270 281 289 299 291 302 460 478 82 86
152 157 156 157 3 0 64 -56 134 -125z m-2998 -1432 c38 -38 161 -156 273 -263
112 -107 266 -256 342 -330 77 -74 183 -176 236 -227 62 -59 93 -96 87 -102
-6 -5 -55 -28 -110 -51 -55 -23 -118 -51 -140 -61 -22 -10 -197 -86 -390 -169
-192 -84 -363 -158 -379 -166 -16 -8 -36 -14 -44 -14 -8 0 -92 77 -188 172
-96 95 -179 175 -184 178 -7 5 392 1053 417 1093 7 11 7 11 80 -60z"/>
</g>
</svg>
